<?xml version="1.0" encoding="UTF-8" standalone="no"?>
<svg
   xmlns:dc="http://purl.org/dc/elements/1.1/"
   xmlns:cc="http://creativecommons.org/ns#"
   xmlns:rdf="http://www.w3.org/1999/02/22-rdf-syntax-ns#"
   xmlns:svg="http://www.w3.org/2000/svg"
   xmlns="http://www.w3.org/2000/svg"
   xmlns:sodipodi="http://sodipodi.sourceforge.net/DTD/sodipodi-0.dtd"
   xmlns:inkscape="http://www.inkscape.org/namespaces/inkscape"
   width="580"
   height="400"
   style=""
   version="1.1"
   id="svg19"
   sodipodi:docname="logo.svg"
   inkscape:version="0.92.4 (5da689c313, 2019-01-14)">
  <metadata
     id="metadata25">
    <rdf:RDF>
      <cc:Work
         rdf:about="">
        <dc:format>image/svg+xml</dc:format>
        <dc:type
           rdf:resource="http://purl.org/dc/dcmitype/StillImage" />
      </cc:Work>
    </rdf:RDF>
  </metadata>
  <defs
     id="defs23" />
  <sodipodi:namedview
     pagecolor="#ffffff"
     bordercolor="#666666"
     borderopacity="1"
     objecttolerance="10"
     gridtolerance="10"
     guidetolerance="10"
     inkscape:pageopacity="0"
     inkscape:pageshadow="2"
     inkscape:window-width="3840"
     inkscape:window-height="2004"
     id="namedview21"
     showgrid="false"
     inkscape:zoom="1.18"
     inkscape:cx="742.7188"
     inkscape:cy="278.13146"
     inkscape:window-x="-16"
     inkscape:window-y="-16"
     inkscape:window-maximized="1"
     inkscape:current-layer="svg19" />
  <!-- Created with Method Draw - http://github.com/duopixel/Method-Draw/ -->
  <g
     id="g5">
    <title
       id="title2">background</title>
    <path
       fill="#e3e3e3"
       id="canvas_background"
       height="402"
       width="582"
       d="M-1 -1 L581 -1 L581 401 L-1 401 Z"
       class="xFOqcQLc_0" />
  </g>
  <g
     id="g15">
    <title
       id="title7">Layer 1</title>
    <path
       stroke="#000"
       id="svg_1"
       stroke-width="1.5"
       fill="#fff"
       d="M122.5,194.04375A174,179 0,1,1 470.5,194.04375A174,179 0,1,1 122.5,194.04375"
       class="xFOqcQLc_1" />
    <path
       stroke-linecap="undefined"
       stroke-linejoin="undefined"
       id="svg_3"
       stroke-width="1.5"
       stroke="#000"
       fill="none"
       d="M294.5,14.04375L173.5,320.04375"
       class="xFOqcQLc_2" />
    <path
       stroke-linecap="null"
       stroke-linejoin="null"
       id="svg_6"
       fill-opacity="null"
       stroke-opacity="null"
       stroke-width="1.5"
       stroke="#000"
       fill="none"
       d="M293.5,16.04375L430.5,307.04375"
       class="xFOqcQLc_3" />
    <path
       stroke-linecap="null"
       stroke-linejoin="null"
       id="svg_9"
       fill-opacity="null"
       stroke-opacity="null"
       stroke-width="1.5"
       stroke="#000"
       fill="none"
       d="M299.5,372.04375L174.5,67.04375"
       class="xFOqcQLc_4" />
    <path
       stroke-linecap="null"
       stroke-linejoin="null"
       id="svg_10"
       fill-opacity="null"
       stroke-opacity="null"
       stroke-width="1.5"
       stroke="#000"
       fill="none"
       d="M299.5,372.04375L412.5,61.04375"
       class="xFOqcQLc_5" />
    <path
       stroke-linecap="null"
       stroke-linejoin="null"
       id="svg_12"
       fill-opacity="null"
       stroke-opacity="null"
       stroke-width="1.5"
       stroke="#000"
       fill="none"
       d="M122.5,187.04375L470.5,181.04375"
       class="xFOqcQLc_6" />
  </g>
  <style
     data-made-with="vivus-instant"
     id="style17">.xFOqcQLc_0{stroke-dasharray:1968 1970;stroke-dashoffset:1969;animation:xFOqcQLc_draw_0 7200ms linear 0ms infinite,xFOqcQLc_fade 7200ms linear 0ms infinite;}.xFOqcQLc_1{stroke-dasharray:1110 1112;stroke-dashoffset:1111;animation:xFOqcQLc_draw_1 7200ms linear 0ms infinite,xFOqcQLc_fade 7200ms linear 0ms infinite;}.xFOqcQLc_2{stroke-dasharray:330 332;stroke-dashoffset:331;animation:xFOqcQLc_draw_2 7200ms linear 0ms infinite,xFOqcQLc_fade 7200ms linear 0ms infinite;}.xFOqcQLc_3{stroke-dasharray:322 324;stroke-dashoffset:323;animation:xFOqcQLc_draw_3 7200ms linear 0ms infinite,xFOqcQLc_fade 7200ms linear 0ms infinite;}.xFOqcQLc_4{stroke-dasharray:330 332;stroke-dashoffset:331;animation:xFOqcQLc_draw_4 7200ms linear 0ms infinite,xFOqcQLc_fade 7200ms linear 0ms infinite;}.xFOqcQLc_5{stroke-dasharray:331 333;stroke-dashoffset:332;animation:xFOqcQLc_draw_5 7200ms linear 0ms infinite,xFOqcQLc_fade 7200ms linear 0ms infinite;}.xFOqcQLc_6{stroke-dasharray:349 351;stroke-dashoffset:350;animation:xFOqcQLc_draw_6 7200ms linear 0ms infinite,xFOqcQLc_fade 7200ms linear 0ms infinite;}@keyframes xFOqcQLc_draw{100%{stroke-dashoffset:0;}}@keyframes xFOqcQLc_fade{0%{stroke-opacity:1;}94.44444444444444%{stroke-opacity:1;}100%{stroke-opacity:0;}}@keyframes xFOqcQLc_draw_0{11.11111111111111%{stroke-dashoffset: 1969}38.88888888888889%{ stroke-dashoffset: 0;}100%{ stroke-dashoffset: 0;}}@keyframes xFOqcQLc_draw_1{13.425925925925924%{stroke-dashoffset: 1111}41.2037037037037%{ stroke-dashoffset: 0;}100%{ stroke-dashoffset: 0;}}@keyframes xFOqcQLc_draw_2{15.740740740740739%{stroke-dashoffset: 331}43.51851851851851%{ stroke-dashoffset: 0;}100%{ stroke-dashoffset: 0;}}@keyframes xFOqcQLc_draw_3{18.055555555555554%{stroke-dashoffset: 323}45.83333333333333%{ stroke-dashoffset: 0;}100%{ stroke-dashoffset: 0;}}@keyframes xFOqcQLc_draw_4{20.37037037037037%{stroke-dashoffset: 331}48.148148148148145%{ stroke-dashoffset: 0;}100%{ stroke-dashoffset: 0;}}@keyframes xFOqcQLc_draw_5{22.685185185185183%{stroke-dashoffset: 332}50.462962962962955%{ stroke-dashoffset: 0;}100%{ stroke-dashoffset: 0;}}@keyframes xFOqcQLc_draw_6{25%{stroke-dashoffset: 350}52.77777777777778%{ stroke-dashoffset: 0;}100%{ stroke-dashoffset: 0;}}</style>
  <path
     style="fill:#e6e6e6;fill-opacity:1;stroke-width:0.59924304"
     d="m 223.00634,182.68869 c -0.2835,-0.74156 -11.07749,-27.10077 -23.98663,-58.57601 L 175.54854,66.884974 179.97576,62.62377 C 207.48325,36.147778 247.67733,18.628354 285.93453,16.439435 l 6.58323,-0.376665 -1.37497,3.617679 c -0.75624,1.989723 -15.66692,39.778465 -33.13485,83.974981 -29.15408,73.76422 -31.87172,80.3583 -33.12301,80.36943 -0.86821,0.008 -1.55028,-0.47741 -1.87859,-1.33617 z"
     id="path838"
     inkscape:connector-curvature="0" />
  <path
     style="fill:#e6e6e6;fill-opacity:1;stroke-width:0.59924304"
     d="m 123.98381,180.59134 c 2.41453,-31.03054 12.64797,-61.04025 29.5628,-86.693326 6.9567,-10.550551 19.86879,-25.834506 20.6954,-24.497014 0.59855,0.968477 47.16408,114.82452 47.00714,114.93581 -0.16804,0.11918 -88.40239,1.53662 -94.15681,1.51259 l -3.51652,-0.0147 z"
     id="path840"
     inkscape:connector-curvature="0" />
  <path
     style="fill:#e6e6e6;fill-opacity:1;stroke-width:0.59924304"
     d="M 167.98251,313.02405 C 150.51383,292.6978 138.16662,270.207 130.97532,245.61438 c -4.58646,-15.68468 -6.58263,-28.43664 -7.07281,-45.18282 l -0.3533,-12.06948 7.42491,-0.34971 c 4.0837,-0.19234 18.21128,-0.4937 31.39463,-0.66967 13.18335,-0.17598 32.08659,-0.49246 42.0072,-0.70329 l 18.03747,-0.38332 0.67237,1.92874 c 0.63154,1.81164 -0.86393,5.81889 -24.62915,65.99601 -13.91583,35.23698 -25.45145,64.0716 -25.6347,64.07692 -0.18326,0.005 -2.361,-2.34985 -4.83943,-5.23371 z"
     id="path842"
     inkscape:connector-curvature="0" />
  <path
     style="fill:#e6e6e6;fill-opacity:1;stroke-width:0.59924304"
     d="M 283.71546,371.51727 C 245.32815,368.65887 208.3861,352.1939 179.52103,325.0781 l -5.01972,-4.71551 25.05666,-63.36886 c 13.78116,-34.85287 25.20845,-63.36725 25.39398,-63.36529 0.31354,0.003 72.61203,175.95493 73.03947,177.75496 0.22339,0.94071 -3.03056,0.97122 -14.27596,0.13387 z"
     id="path844"
     inkscape:connector-curvature="0" />
  <path
     style="fill:#e6e6e6;fill-opacity:1;stroke-width:0.59924304"
     d="m 298.21478,366.14188 c -0.61112,-1.44739 -17.10065,-41.6628 -36.64342,-89.3676 -33.32841,-81.3562 -35.48751,-86.84413 -34.81018,-88.47936 l 0.72213,-1.74336 7.89162,-0.34788 c 12.83326,-0.56571 130.45784,-2.34543 130.82384,-1.97943 0.28263,0.28263 -66.02319,183.62694 -66.65671,184.3146 -0.11889,0.12904 -0.71616,-0.9496 -1.32728,-2.39697 z"
     id="path846"
     inkscape:connector-curvature="0" />
  <path
     style="fill:#e6e6e6;fill-opacity:1;stroke-width:0.59924304"
     d="m 301.37921,369.89094 c 0.43372,-1.20227 15.54271,-42.7697 33.57553,-92.37204 18.03281,-49.60234 33.05323,-90.92764 33.37871,-91.83399 0.39842,-1.10951 1.01314,-1.64496 1.88145,-1.63886 1.12168,0.008 5.03638,7.97382 30.05333,61.15489 15.82002,33.6302 28.84615,61.51144 28.94697,61.9583 0.23512,1.04223 -5.76769,8.04543 -13.05716,15.23316 -20.19361,19.91176 -45.47438,34.92378 -71.81884,42.64686 -12.70966,3.72595 -24.30316,5.68886 -40.05149,6.78121 l -3.6971,0.25645 z"
     id="path848"
     inkscape:connector-curvature="0" />
  <path
     style="fill:#e6e6e6;fill-opacity:1;stroke-width:0.59924304"
     d="m 402.24124,244.5684 c -26.25262,-55.72689 -28.41702,-60.5587 -27.23108,-60.79066 2.30792,-0.45141 93.35832,-1.65216 93.77055,-1.23662 0.69318,0.69875 0.37581,25.47434 -0.41065,32.05726 -3.68783,30.86824 -14.75972,59.70153 -32.54357,84.74961 -2.08911,2.94245 -4.08355,5.44197 -4.4321,5.5545 -0.34855,0.11252 -13.46746,-27.03783 -29.15315,-60.33409 z"
     id="path850"
     inkscape:connector-curvature="0" />
  <path
     style="fill:#e6e6e6;fill-opacity:1;stroke-width:0.59924304"
     d="m 371.84352,179.93724 c -0.71937,-1.73671 0.35816,-4.91689 20.07247,-59.24148 11.45796,-31.573432 20.95237,-57.541074 21.09869,-57.705866 0.14633,-0.164791 3.37316,2.933325 7.17075,6.884703 22.27028,23.172178 38.6081,54.302363 45.30317,86.320973 1.76363,8.4344 3.73496,22.90522 3.19402,23.44616 -0.35133,0.35133 -12.34921,0.63404 -72.65877,1.7121 l -23.42015,0.41864 z"
     id="path852"
     inkscape:connector-curvature="0" />
  <path
     style="fill:#e6e6e6;fill-opacity:1;stroke-width:0.59924304"
     d="m 228.85167,182.98831 c 6.67541,-17.73201 64.832,-163.588384 65.10498,-163.282931 0.21561,0.241251 17.15007,36.078055 37.63215,79.637343 33.68153,71.630628 37.17527,79.341028 36.56149,80.688138 -0.66788,1.46585 -0.8222,1.49508 -9.74817,1.84656 -8.91966,0.35123 -114.26858,2.1834 -124.63775,2.16763 -4.80388,-0.007 -5.27003,-0.10757 -4.9127,-1.05674 z"
     id="path854"
     inkscape:connector-curvature="0" />
  <path
     style="fill:#e6e6e6;fill-opacity:1;stroke-width:0.59924304"
     d="M 332.7314,96.919976 C 312.39491,53.704448 295.57976,17.874384 295.36441,17.297613 c -0.35713,-0.956468 0.15416,-1.048611 5.8148,-1.047949 11.58335,0.0014 28.80259,2.622178 41.74649,6.353943 9.90599,2.855926 17.23742,5.738405 27.97962,11.000678 13.87632,6.797576 25.70668,14.62452 37.68729,24.933847 l 2.83502,2.439533 -20.36451,55.986665 c -11.20048,30.79266 -20.58766,56.55876 -20.8604,57.258 -0.39671,1.01707 -7.89092,-14.44331 -37.47132,-77.302354 z"
     id="path856"
     inkscape:connector-curvature="0" />
  <path
     style="fill:#e6e6e6;fill-opacity:1;stroke-width:0.0529661"
     d="m 224.49727,186.99111 -0.37346,-0.91608 0.36286,-0.0155 c 0.19958,-0.009 0.53995,-0.009 0.75638,0 l 0.39352,0.0155 -0.34118,0.87394 c -0.18765,0.48067 -0.35996,0.89291 -0.38292,0.91608 -0.023,0.0232 -0.2098,-0.37009 -0.4152,-0.87394 z"
     id="path858"
     inkscape:connector-curvature="0" />
  <path
     style="fill:#e6e6e6;fill-opacity:1;stroke-width:0.0529661"
     d="m 369.39887,181.98883 c 0,-0.0746 0.53188,-1.52263 0.57595,-1.56803 0.0213,-0.0219 0.20084,0.30727 0.39905,0.73149 0.19821,0.42423 0.34653,0.78518 0.32959,0.80212 -0.0535,0.0535 -1.30459,0.0865 -1.30459,0.0344 z"
     id="path860"
     inkscape:connector-curvature="0" />
</svg>
